<?xml version="1.0" encoding="UTF-8"?> <svg xmlns="http://www.w3.org/2000/svg" width="579" height="168" viewBox="0 0 579 168" fill="none"><path d="M234 104.717C234 103.755 234.305 102.964 234.914 102.342C235.523 101.717 236.346 101.404 237.383 101.404C238.568 101.404 239.463 101.77 240.069 102.503C240.555 103.092 240.799 103.819 240.799 104.681C240.799 105.651 240.496 106.447 239.89 107.068C239.289 107.685 238.454 107.994 237.388 107.994C236.437 107.994 235.668 107.737 235.081 107.222C234.36 106.585 234 105.75 234 104.717ZM236.274 104.711C236.274 105.273 236.38 105.689 236.591 105.958C236.807 106.227 237.076 106.361 237.399 106.361C237.726 106.361 237.994 106.229 238.202 105.964C238.414 105.699 238.52 105.273 238.52 104.687C238.52 104.141 238.414 103.735 238.202 103.47C237.99 103.201 237.728 103.067 237.416 103.067C237.085 103.067 236.812 103.203 236.597 103.476C236.381 103.745 236.274 104.157 236.274 104.711Z" fill="white"></path><path d="M246.533 105.388L248.69 105.649C248.571 106.128 248.376 106.544 248.104 106.896C247.833 107.244 247.486 107.515 247.062 107.709C246.643 107.903 246.108 108 245.457 108C244.83 108 244.306 107.939 243.886 107.816C243.47 107.689 243.111 107.487 242.81 107.21C242.509 106.929 242.273 106.601 242.103 106.225C241.932 105.849 241.846 105.35 241.846 104.729C241.846 104.08 241.95 103.54 242.158 103.108C242.311 102.792 242.519 102.509 242.782 102.259C243.046 102.006 243.317 101.818 243.596 101.695C244.038 101.501 244.605 101.404 245.296 101.404C246.262 101.404 246.997 101.588 247.503 101.956C248.012 102.325 248.368 102.863 248.573 103.571L246.438 103.874C246.371 103.605 246.249 103.403 246.07 103.268C245.896 103.13 245.66 103.061 245.363 103.061C244.987 103.061 244.683 103.205 244.449 103.494C244.218 103.779 244.103 104.212 244.103 104.794C244.103 105.313 244.218 105.706 244.449 105.976C244.679 106.245 244.973 106.379 245.329 106.379C245.626 106.379 245.875 106.298 246.076 106.136C246.28 105.974 246.433 105.724 246.533 105.388Z" fill="white"></path><path d="M256.647 107.852H254.374V105.471H252.312V107.852H250.038V101.553H252.312V103.708H254.374V101.553H256.647V107.852Z" fill="white"></path><path d="M258.046 104.717C258.046 103.755 258.35 102.964 258.96 102.342C259.569 101.717 260.392 101.404 261.428 101.404C262.614 101.404 263.509 101.77 264.115 102.503C264.601 103.092 264.845 103.819 264.845 104.681C264.845 105.651 264.542 106.447 263.936 107.068C263.334 107.685 262.5 107.994 261.434 107.994C260.483 107.994 259.714 107.737 259.127 107.222C258.406 106.585 258.046 105.75 258.046 104.717ZM260.319 104.711C260.319 105.273 260.425 105.689 260.637 105.958C260.853 106.227 261.122 106.361 261.445 106.361C261.772 106.361 262.04 106.229 262.248 105.964C262.459 105.699 262.565 105.273 262.565 104.687C262.565 104.141 262.459 103.735 262.248 103.47C262.036 103.201 261.774 103.067 261.462 103.067C261.131 103.067 260.858 103.203 260.643 103.476C260.427 103.745 260.319 104.157 260.319 104.711Z" fill="white"></path><path d="M270.629 104.497C271.078 104.545 271.435 104.703 271.699 104.972C271.966 105.241 272.1 105.602 272.1 106.053C272.1 106.654 271.914 107.106 271.543 107.406C271.171 107.703 270.504 107.852 269.542 107.852H266.165V101.553H269.815C270.477 101.553 270.98 101.687 271.325 101.956C271.675 102.226 271.849 102.602 271.849 103.084C271.849 103.425 271.736 103.722 271.509 103.975C271.283 104.224 270.989 104.391 270.629 104.474V104.497ZM268.433 103.951H269.007C269.386 103.951 269.576 103.767 269.576 103.399C269.576 103.102 269.375 102.954 268.974 102.954H268.433V103.951ZM268.433 106.367H269.18C269.366 106.367 269.516 106.322 269.631 106.231C269.746 106.14 269.804 106.007 269.804 105.833C269.804 105.453 269.596 105.263 269.18 105.263H268.433V106.367Z" fill="white"></path><path d="M275.482 103.589L273.315 103.346C273.396 102.942 273.513 102.625 273.666 102.396C273.822 102.162 274.045 101.96 274.335 101.79C274.543 101.668 274.829 101.573 275.193 101.505C275.557 101.438 275.951 101.404 276.374 101.404C277.054 101.404 277.6 101.446 278.013 101.529C278.425 101.608 278.769 101.776 279.043 102.034C279.237 102.212 279.389 102.465 279.5 102.794C279.612 103.118 279.668 103.429 279.668 103.726V106.51C279.668 106.807 279.684 107.04 279.718 107.21C279.755 107.377 279.833 107.59 279.952 107.852H277.823C277.738 107.689 277.682 107.567 277.656 107.484C277.63 107.396 277.604 107.262 277.578 107.08C277.281 107.385 276.985 107.602 276.692 107.733C276.291 107.907 275.824 107.994 275.293 107.994C274.587 107.994 274.05 107.82 273.682 107.472C273.318 107.123 273.136 106.694 273.136 106.183C273.136 105.704 273.268 105.311 273.532 105.002C273.796 104.693 274.282 104.464 274.992 104.313C275.843 104.131 276.395 104.005 276.647 103.933C276.9 103.858 277.167 103.761 277.45 103.642C277.45 103.346 277.392 103.138 277.277 103.019C277.162 102.9 276.959 102.841 276.669 102.841C276.298 102.841 276.019 102.904 275.834 103.031C275.689 103.13 275.572 103.316 275.482 103.589ZM277.45 104.859C277.138 104.978 276.813 105.083 276.474 105.174C276.014 105.305 275.722 105.433 275.6 105.56C275.473 105.691 275.41 105.839 275.41 106.005C275.41 106.195 275.471 106.352 275.594 106.474C275.72 106.593 275.904 106.652 276.146 106.652C276.398 106.652 276.632 106.587 276.848 106.456C277.067 106.326 277.221 106.168 277.31 105.982C277.403 105.792 277.45 105.546 277.45 105.245V104.859Z" fill="white"></path><path d="M287.943 107.852H285.669V105.471H283.607V107.852H281.334V101.553H283.607V103.708H285.669V101.553H287.943V107.852Z" fill="white"></path><path d="M289.341 104.717C289.341 103.755 289.646 102.964 290.255 102.342C290.865 101.717 291.688 101.404 292.724 101.404C293.909 101.404 294.805 101.77 295.41 102.503C295.897 103.092 296.14 103.819 296.14 104.681C296.14 105.651 295.837 106.447 295.232 107.068C294.63 107.685 293.796 107.994 292.73 107.994C291.779 107.994 291.01 107.737 290.423 107.222C289.702 106.585 289.341 105.75 289.341 104.717ZM291.615 104.711C291.615 105.273 291.721 105.689 291.933 105.958C292.148 106.227 292.418 106.361 292.741 106.361C293.068 106.361 293.335 106.229 293.543 105.964C293.755 105.699 293.861 105.273 293.861 104.687C293.861 104.141 293.755 103.735 293.543 103.47C293.332 103.201 293.07 103.067 292.758 103.067C292.427 103.067 292.154 103.203 291.938 103.476C291.723 103.745 291.615 104.157 291.615 104.711Z" fill="white"></path><path d="M305.965 104.497C306.414 104.545 306.771 104.703 307.035 104.972C307.302 105.241 307.436 105.602 307.436 106.053C307.436 106.654 307.25 107.106 306.879 107.406C306.507 107.703 305.84 107.852 304.878 107.852H301.501V101.553H305.151C305.812 101.553 306.316 101.687 306.661 101.956C307.01 102.226 307.185 102.602 307.185 103.084C307.185 103.425 307.072 103.722 306.845 103.975C306.618 104.224 306.325 104.391 305.965 104.474V104.497ZM303.769 103.951H304.343C304.722 103.951 304.911 103.767 304.911 103.399C304.911 103.102 304.711 102.954 304.309 102.954H303.769V103.951ZM303.769 106.367H304.516C304.701 106.367 304.852 106.322 304.967 106.231C305.082 106.14 305.14 106.007 305.14 105.833C305.14 105.453 304.932 105.263 304.516 105.263H303.769V106.367Z" fill="white"></path><path d="M319.216 107.852H312.406C312.484 107.135 312.72 106.462 313.114 105.833C313.512 105.2 314.255 104.454 315.343 103.595C316.008 103.069 316.433 102.669 316.619 102.396C316.805 102.123 316.898 101.863 316.898 101.618C316.898 101.353 316.805 101.127 316.619 100.941C316.437 100.751 316.207 100.656 315.928 100.656C315.638 100.656 315.401 100.753 315.215 100.947C315.033 101.141 314.91 101.484 314.847 101.974L312.573 101.778C312.663 101.098 312.826 100.567 313.064 100.187C313.302 99.8034 313.636 99.5106 314.067 99.3087C314.502 99.1029 315.102 99 315.867 99C316.666 99 317.286 99.097 317.728 99.2909C318.174 99.4848 318.523 99.7836 318.776 100.187C319.032 100.587 319.16 101.036 319.16 101.535C319.16 102.065 319.014 102.572 318.72 103.055C318.43 103.538 317.901 104.068 317.132 104.646C316.675 104.982 316.368 105.218 316.212 105.352C316.06 105.487 315.88 105.663 315.672 105.881H319.216V107.852Z" fill="white"></path><path d="M320.414 103.464C320.414 101.81 320.693 100.652 321.25 99.9914C321.811 99.3305 322.664 99 323.808 99C324.358 99 324.809 99.0732 325.162 99.2197C325.515 99.3621 325.803 99.5501 326.026 99.7836C326.249 100.013 326.423 100.257 326.55 100.514C326.68 100.767 326.784 101.064 326.862 101.404C327.014 102.053 327.09 102.73 327.09 103.435C327.09 105.014 326.839 106.17 326.338 106.902C325.836 107.634 324.973 108 323.747 108C323.059 108 322.504 107.883 322.08 107.65C321.657 107.416 321.309 107.074 321.038 106.623C320.841 106.302 320.687 105.865 320.576 105.311C320.468 104.753 320.414 104.137 320.414 103.464ZM322.665 103.47C322.665 104.578 322.756 105.336 322.939 105.744C323.124 106.148 323.392 106.35 323.741 106.35C323.971 106.35 324.17 106.265 324.337 106.094C324.508 105.92 324.633 105.647 324.711 105.275C324.792 104.903 324.833 104.323 324.833 103.536C324.833 102.38 324.74 101.604 324.555 101.208C324.373 100.809 324.098 100.609 323.73 100.609C323.355 100.609 323.083 100.813 322.916 101.22C322.749 101.624 322.665 102.374 322.665 103.47Z" fill="white"></path><path d="M333.398 99V107.852H331.102V102.051C330.731 102.352 330.37 102.596 330.021 102.782C329.676 102.968 329.241 103.146 328.717 103.316V101.333C329.49 101.068 330.09 100.749 330.517 100.377C330.944 100.005 331.279 99.5462 331.52 99H333.398Z" fill="white"></path><path d="M339.996 106.225H335.861V104.236L339.996 99H341.975V104.349H343V106.225H341.975V107.852H339.996V106.225ZM339.996 104.349V101.612L337.812 104.349H339.996Z" fill="white"></path><path d="M222.114 104.229C231.165 130.59 257.431 150 289.014 150C320.566 150 346.811 130.626 355.886 104.303L363 108.219C352.389 137.193 323.272 158 289.014 158L288.002 157.994C254.154 157.589 225.485 136.873 215 108.146L222.114 104.229Z" fill="white"></path><path d="M290.025 10.0059C312.428 10.2742 332.562 19.4406 346.657 33.9375L339.911 38.499C327.178 25.9149 309.18 18.0001 289.014 18C269.252 18 251.572 25.5995 238.888 37.7461L232.124 33.1719C246.394 18.9034 266.604 10 289.014 10L290.025 10.0059Z" fill="white"></path><path d="M10 50.208H43.6182V59.0459H32.3389V85.999H21.2793V59.0459H10V50.208Z" fill="white"></path><path d="M87.1963 93.7871H78.2852V85.999H55.4336V93.7871H46.5469V77.7471H50.2334C52.3005 71.9691 53.334 65.4505 53.334 58.1914V50.208H83.3389V77.7471H87.1963V93.7871ZM72.2793 77.7471V58.9971H63.3926V59.4609C63.3926 64.4089 62.5544 70.5042 60.8779 77.7471H72.2793Z" fill="white"></path><path d="M110.192 50.208H128.576C132.58 50.208 135.575 51.1602 137.561 53.0645C139.562 54.9688 140.563 57.6787 140.563 61.1943C140.563 64.8076 139.473 67.6315 137.292 69.666C135.127 71.7005 131.815 72.7178 127.355 72.7178H121.301V85.999H110.192V50.208ZM121.301 65.4668H124.011C126.143 65.4668 127.64 65.1006 128.503 64.3682C129.366 63.6195 129.797 62.6673 129.797 61.5117C129.797 60.3887 129.423 59.4365 128.674 58.6553C127.925 57.874 126.517 57.4834 124.45 57.4834H121.301V65.4668Z" fill="white"></path><path d="M144.005 50.208H156.017L160.973 64.9541L165.855 50.208H177.11L165.367 77.8447C164.407 80.0745 163.569 81.7428 162.853 82.8496C162.136 83.9401 161.07 84.8434 159.654 85.5596C158.255 86.2594 156.326 86.6094 153.868 86.6094C152.566 86.6094 150.328 86.4222 147.154 86.0479V78.6504C149.026 78.8457 150.393 78.9434 151.256 78.9434C153.811 78.9434 155.366 77.9912 155.919 76.0869L144.005 50.208Z" fill="white"></path><path d="M205.796 71.375L215.488 74.3047C214.837 77.0228 213.812 79.2933 212.412 81.1162C211.012 82.9391 209.271 84.3145 207.188 85.2422C205.12 86.1699 202.484 86.6338 199.277 86.6338C195.387 86.6338 192.205 86.0723 189.731 84.9492C187.274 83.8099 185.15 81.8161 183.359 78.9678C181.569 76.1195 180.674 72.4736 180.674 68.0303C180.674 62.1058 182.244 57.5566 185.386 54.3828C188.543 51.1927 193.003 49.5977 198.765 49.5977C203.273 49.5977 206.813 50.5091 209.385 52.332C211.973 54.1549 213.893 56.9544 215.146 60.7305L205.381 62.9033C205.039 61.8128 204.681 61.0153 204.307 60.5107C203.688 59.6644 202.931 59.0133 202.036 58.5576C201.141 58.1019 200.14 57.874 199.033 57.874C196.527 57.874 194.606 58.8831 193.271 60.9014C192.262 62.3988 191.758 64.7507 191.758 67.957C191.758 71.9284 192.36 74.6546 193.564 76.1357C194.769 77.6006 196.462 78.333 198.643 78.333C200.758 78.333 202.354 77.7389 203.428 76.5508C204.518 75.3626 205.308 73.6374 205.796 71.375Z" fill="white"></path><path d="M245.712 71.375L255.404 74.3047C254.753 77.0228 253.728 79.2933 252.328 81.1162C250.928 82.9391 249.187 84.3145 247.104 85.2422C245.036 86.1699 242.4 86.6338 239.193 86.6338C235.303 86.6338 232.121 86.0723 229.647 84.9492C227.19 83.8099 225.066 81.8161 223.275 78.9678C221.485 76.1195 220.59 72.4736 220.59 68.0303C220.59 62.1058 222.16 57.5566 225.302 54.3828C228.459 51.1927 232.919 49.5977 238.681 49.5977C243.189 49.5977 246.729 50.5091 249.301 52.332C251.889 54.1549 253.809 56.9544 255.062 60.7305L245.297 62.9033C244.955 61.8128 244.597 61.0153 244.223 60.5107C243.604 59.6644 242.847 59.0133 241.952 58.5576C241.057 58.1019 240.056 57.874 238.949 57.874C236.443 57.874 234.522 58.8831 233.188 60.9014C232.178 62.3988 231.674 64.7507 231.674 67.957C231.674 71.9284 232.276 74.6546 233.48 76.1357C234.685 77.6006 236.378 78.333 238.559 78.333C240.674 78.333 242.27 77.7389 243.344 76.5508C244.434 75.3626 245.224 73.6374 245.712 71.375Z" fill="white"></path><path d="M282.991 67.3467H275.789V85.999H265.828V67.3467H258.626V60.0957H282.991V67.3467Z" fill="white"></path><path d="M296.589 68.4697L287.092 67.4688C287.45 65.8086 287.963 64.5065 288.63 63.5625C289.313 62.6022 290.29 61.7721 291.56 61.0723C292.471 60.5677 293.724 60.1771 295.319 59.9004C296.914 59.6237 298.64 59.4854 300.495 59.4854C303.474 59.4854 305.866 59.6562 307.673 59.998C309.479 60.3236 310.985 61.0153 312.189 62.0732C313.036 62.8057 313.703 63.8473 314.191 65.1982C314.68 66.5329 314.924 67.8105 314.924 69.0312V80.4814C314.924 81.7021 314.997 82.6624 315.144 83.3623C315.306 84.0459 315.648 84.9248 316.169 85.999H306.843C306.468 85.3317 306.224 84.8271 306.11 84.4854C305.996 84.1273 305.882 83.5739 305.769 82.8252C304.466 84.0785 303.173 84.9736 301.887 85.5107C300.129 86.2269 298.086 86.585 295.759 86.585C292.666 86.585 290.314 85.8688 288.703 84.4365C287.108 83.0042 286.311 81.2383 286.311 79.1387C286.311 77.1693 286.888 75.5498 288.044 74.2803C289.2 73.0107 291.332 72.0667 294.44 71.4482C298.168 70.6995 300.585 70.1787 301.691 69.8857C302.798 69.5765 303.97 69.1777 305.207 68.6895C305.207 67.4688 304.955 66.6143 304.45 66.126C303.946 65.6377 303.059 65.3936 301.789 65.3936C300.161 65.3936 298.941 65.654 298.127 66.1748C297.492 66.5817 296.979 67.3467 296.589 68.4697ZM305.207 73.6943C303.84 74.1826 302.416 74.6139 300.935 74.9883C298.916 75.5254 297.639 76.0544 297.102 76.5752C296.548 77.1123 296.271 77.7227 296.271 78.4062C296.271 79.1875 296.54 79.8304 297.077 80.335C297.631 80.8232 298.436 81.0674 299.494 81.0674C300.601 81.0674 301.626 80.7988 302.57 80.2617C303.531 79.7246 304.206 79.0736 304.597 78.3086C305.004 77.5273 305.207 76.5182 305.207 75.2812V73.6943Z" fill="white"></path><path d="M351.178 85.999H341.217V76.209H332.184V85.999H322.223V60.0957H332.184V68.958H341.217V60.0957H351.178V85.999Z" fill="white"></path><path d="M387.383 85.999H376.177L372.368 78.8457C371.766 77.7064 371.172 76.9902 370.586 76.6973C370.016 76.4043 369.308 76.2578 368.462 76.2578V85.999H358.525V60.0957H368.462V69.4463C369.276 69.3649 369.878 69.0964 370.269 68.6406C370.659 68.1849 371.221 67.1839 371.953 65.6377C372.702 64.0915 373.369 62.9603 373.955 62.2441C374.541 61.528 375.29 60.9909 376.201 60.6328C377.113 60.2747 378.252 60.0469 379.619 59.9492C380.986 59.8516 383.021 59.8027 385.723 59.8027V66.8584H385.283C383.949 66.8584 382.931 66.9154 382.231 67.0293C381.532 67.127 380.97 67.3467 380.547 67.6885C380.124 68.0303 379.635 68.7301 379.082 69.7881C378.529 70.846 378.065 71.5866 377.69 72.0098C377.332 72.4167 376.795 72.6934 376.079 72.8398C377.463 72.9701 378.529 73.2712 379.277 73.7432C380.026 74.1989 381.157 75.6882 382.671 78.2109L387.383 85.999Z" fill="white"></path><path d="M390.434 73.1084C390.434 69.1533 391.768 65.8981 394.438 63.3428C397.107 60.7712 400.712 59.4854 405.253 59.4854C410.445 59.4854 414.368 60.9909 417.021 64.002C419.153 66.4271 420.219 69.4137 420.219 72.9619C420.219 76.9495 418.892 80.221 416.239 82.7764C413.603 85.3154 409.949 86.585 405.277 86.585C401.111 86.585 397.742 85.527 395.17 83.4111C392.012 80.7907 390.434 77.3564 390.434 73.1084ZM400.395 73.084C400.395 75.3952 400.858 77.1042 401.786 78.2109C402.73 79.3177 403.91 79.8711 405.326 79.8711C406.758 79.8711 407.93 79.3258 408.842 78.2354C409.77 77.1449 410.233 75.3952 410.233 72.9863C410.233 70.7402 409.77 69.0719 408.842 67.9814C407.914 66.8747 406.767 66.3213 405.399 66.3213C403.951 66.3213 402.755 66.8828 401.811 68.0059C400.867 69.1126 400.395 70.8053 400.395 73.084Z" fill="white"></path><path d="M450.491 71.375L460.184 74.3047C459.533 77.0228 458.507 79.2933 457.107 81.1162C455.708 82.9391 453.966 84.3145 451.883 85.2422C449.816 86.1699 447.179 86.6338 443.973 86.6338C440.083 86.6338 436.901 86.0723 434.427 84.9492C431.969 83.8099 429.845 81.8161 428.055 78.9678C426.264 76.1195 425.369 72.4736 425.369 68.0303C425.369 62.1058 426.94 57.5566 430.081 54.3828C433.239 51.1927 437.698 49.5977 443.46 49.5977C447.968 49.5977 451.508 50.5091 454.08 52.332C456.668 54.1549 458.589 56.9544 459.842 60.7305L450.076 62.9033C449.734 61.8128 449.376 61.0153 449.002 60.5107C448.383 59.6644 447.627 59.0133 446.731 58.5576C445.836 58.1019 444.835 57.874 443.729 57.874C441.222 57.874 439.301 58.8831 437.967 60.9014C436.958 62.3988 436.453 64.7507 436.453 67.957C436.453 71.9284 437.055 74.6546 438.26 76.1357C439.464 77.6006 441.157 78.333 443.338 78.333C445.454 78.333 447.049 77.7389 448.123 76.5508C449.214 75.3626 450.003 73.6374 450.491 71.375Z" fill="white"></path><path d="M474.611 60.8525C475.799 59.9574 477.435 59.5098 479.519 59.5098C484.385 59.5098 488.088 60.7956 490.627 63.3672C493.182 65.9225 494.46 69.1126 494.46 72.9375C494.46 76.7298 493.19 79.9606 490.651 82.6299C488.129 85.2829 484.418 86.6094 479.519 86.6094C474.636 86.6094 470.949 85.2747 468.459 82.6055C465.969 79.9199 464.724 75.5498 464.724 69.4951C464.724 63.8962 465.798 59.3714 467.946 55.9209C470.095 52.4704 473.187 50.68 477.224 50.5498L480.227 50.4521C482.912 50.3382 484.393 49.9883 484.67 49.4023H492.556C492.556 54.1387 489.895 56.6045 484.572 56.7998C480.975 56.93 478.534 57.2881 477.248 57.874C475.962 58.4437 475.083 59.4365 474.611 60.8525ZM479.567 79.7979C481.162 79.7979 482.383 79.2119 483.229 78.04C484.092 76.8682 484.523 75.1917 484.523 73.0107C484.523 70.846 484.084 69.1859 483.205 68.0303C482.326 66.8747 481.146 66.2969 479.665 66.2969C478.021 66.2969 476.776 66.9316 475.93 68.2012C475.083 69.4544 474.66 71.0902 474.66 73.1084C474.66 75.208 475.075 76.8519 475.905 78.04C476.752 79.2119 477.972 79.7979 479.567 79.7979Z" fill="white"></path><path d="M510.572 69.2998H515.113C522.779 69.2998 526.612 72.0993 526.612 77.6982C526.612 83.2321 522.877 85.999 515.406 85.999H500.611V60.0957H510.572V69.2998ZM510.572 79.8955H513.819C514.633 79.8955 515.292 79.7083 515.797 79.334C516.318 78.9596 516.578 78.4144 516.578 77.6982C516.578 76.1357 515.659 75.3545 513.819 75.3545H510.572V79.8955ZM529.444 60.0713H539.381V85.999H529.444V60.0713Z" fill="white"></path><path d="M568.579 67.3467H561.377V85.999H551.416V67.3467H544.214V60.0957H568.579V67.3467Z" fill="white"></path></svg> 