<?xml version="1.0" encoding="UTF-8"?> <svg xmlns="http://www.w3.org/2000/svg" width="168" height="168" viewBox="0 0 168 168" fill="none"><path d="M17.1143 104.229C26.1652 130.59 52.4313 150 84.0137 150C115.566 150 141.811 130.626 150.886 104.303L158 108.219C147.389 137.193 118.272 158 84.0137 158L83.002 157.994C49.1539 157.589 20.4848 136.873 10 108.146L17.1143 104.229Z" fill="white"></path><path d="M85.0254 10.0059C107.428 10.2742 127.562 19.4406 141.657 33.9375L134.911 38.499C122.178 25.9149 104.18 18.0001 84.0137 18C64.2519 18 46.5715 25.5995 33.8877 37.7461L27.124 33.1719C41.3936 18.9034 61.6036 10 84.0137 10L85.0254 10.0059Z" fill="white"></path><path d="M33 64.4023H51.3838C55.3877 64.4023 58.3825 65.3545 60.3682 67.2588C62.3701 69.1631 63.3711 71.873 63.3711 75.3887C63.3711 79.002 62.2806 81.8258 60.0996 83.8604C57.9349 85.8949 54.6227 86.9121 50.1631 86.9121H44.1084V100.193H33V64.4023ZM44.1084 79.6611H46.8184C48.9505 79.6611 50.4479 79.2949 51.3105 78.5625C52.1732 77.8138 52.6045 76.8617 52.6045 75.7061C52.6045 74.583 52.2301 73.6309 51.4814 72.8496C50.7327 72.0684 49.3249 71.6777 47.2578 71.6777H44.1084V79.6611Z" fill="white"></path><path d="M130.548 84.7773L140.24 87.707C139.589 90.4251 138.564 92.6956 137.164 94.5186C135.764 96.3415 134.023 97.7168 131.939 98.6445C129.872 99.5723 127.236 100.036 124.029 100.036C120.139 100.036 116.957 99.4746 114.483 98.3516C112.026 97.2122 109.902 95.2184 108.111 92.3701C106.321 89.5218 105.426 85.876 105.426 81.4326C105.426 75.5081 106.996 70.959 110.138 67.7852C113.295 64.5951 117.755 63 123.517 63C128.025 63 131.565 63.9115 134.137 65.7344C136.725 67.5573 138.645 70.3568 139.898 74.1328L130.133 76.3057C129.791 75.2152 129.433 74.4176 129.059 73.9131C128.44 73.0667 127.683 72.4157 126.788 71.96C125.893 71.5042 124.892 71.2764 123.785 71.2764C121.279 71.2764 119.358 72.2855 118.023 74.3037C117.014 75.8011 116.51 78.153 116.51 81.3594C116.51 85.3307 117.112 88.057 118.316 89.5381C119.521 91.0029 121.214 91.7354 123.395 91.7354C125.51 91.7354 127.105 91.1413 128.18 89.9531C129.27 88.765 130.06 87.0397 130.548 84.7773Z" fill="white"></path><path d="M92.1221 85.1797L101.814 88.1094C101.163 90.8275 100.138 93.098 98.7383 94.9209C97.3385 96.7438 95.597 98.1191 93.5137 99.0469C91.4466 99.9746 88.8099 100.438 85.6035 100.438C81.7135 100.438 78.5316 99.877 76.0576 98.7539C73.5999 97.6146 71.4759 95.6208 69.6855 92.7725C67.8952 89.9242 67 86.2783 67 81.835C67 75.9105 68.5706 71.3613 71.7119 68.1875C74.8695 64.9974 79.3291 63.4023 85.0908 63.4023C89.5993 63.4023 93.1393 64.3138 95.7109 66.1367C98.2988 67.9596 100.219 70.7591 101.473 74.5352L91.707 76.708C91.3652 75.6175 91.0072 74.82 90.6328 74.3154C90.0143 73.4691 89.2575 72.818 88.3623 72.3623C87.4671 71.9066 86.4661 71.6787 85.3594 71.6787C82.8529 71.6787 80.9323 72.6878 79.5977 74.7061C78.5885 76.2035 78.084 78.5553 78.084 81.7617C78.084 85.7331 78.6862 88.4593 79.8906 89.9404C81.0951 91.4053 82.7878 92.1377 84.9688 92.1377C87.0846 92.1377 88.6797 91.5436 89.7539 90.3555C90.8444 89.1673 91.6338 87.4421 92.1221 85.1797Z" fill="white"></path></svg> 